<svg xmlns="http://www.w3.org/2000/svg" width="150" height="150" viewBox="0 0 150 150"><defs><style>.a{fill:#def7fa;}.b{fill:#27c6df;}.c{fill:none;}</style></defs><g transform="translate(-723.967 -251.967)"><circle class="a" cx="75" cy="75" r="75" transform="translate(723.967 251.967)"/><g transform="translate(752.967 280.967)"><g transform="translate(0 0)"><g transform="translate(4.731 10.22)"><path class="b" d="M954.154,114.085c11.418,0,20.677-9.663,20.677-21.575S965.572,71,954.154,71,933.48,80.663,933.48,92.51s9.259,21.575,20.674,21.575Zm0-37.458c8.374,0,15.224,7.148,15.224,15.884s-6.85,15.884-15.224,15.884-15.221-7.148-15.221-15.884,6.85-15.884,15.221-15.884Zm0,0" transform="translate(-914.207 -71)"/><path class="b" d="M943.719,134.52" transform="translate(-916.59 -83.203)"/><path class="b" d="M963.2,127.641H936.655c-14.629,0-26.472,12.176-26.472,27.068a2.8,2.8,0,0,0,2.784,2.848,2.636,2.636,0,0,0,2.685-2.371,49.6,49.6,0,0,1,.838-6.1,20.975,20.975,0,0,1,20.165-15.757H963.2a20.976,20.976,0,0,1,20.165,15.757,49.742,49.742,0,0,1,.838,6.1,2.636,2.636,0,0,0,2.685,2.371,2.794,2.794,0,0,0,2.784-2.848C989.672,139.817,977.828,127.641,963.2,127.641Z" transform="translate(-910.184 -82.583)"/></g><rect class="c" width="92" height="92"/></g></g></g></svg>