<svg xmlns="http://www.w3.org/2000/svg" width="221.642" height="205.384" viewBox="0 0 221.642 205.384"><defs><style>.a{fill:none;}.b,.d{fill:#e0e0e0;}.c{fill:#cbcbcb;fill-rule:evenodd;}.d{stroke:#e0e0e0;stroke-linecap:round;stroke-width:2px;}</style></defs><g transform="translate(-867.595 -218.765)"><g transform="translate(895.541 257.776)"><rect class="a" width="167" height="166" transform="translate(-0.215 0.374)"/><path class="b" d="M9210.772,3771.086h-8.881a39.979,39.979,0,0,0-76.858,0h-23.6v121.272h124V3771.086Zm-48.148-19.967h.825a30.958,30.958,0,0,1,28.992,19.967h-57.993A30.822,30.822,0,0,1,9162.624,3751.119Zm53.866,132.358H9110.3V3779.958H9216.49Z" transform="translate(-9080.56 -3731.768)"/></g><path class="c" d="M50.541,153.449a1.537,1.537,0,0,1,3.075,0v3.615H57.23a1.537,1.537,0,1,1,0,3.075H53.616v3.617a1.537,1.537,0,0,1-3.075,0v-3.617H46.924a1.537,1.537,0,0,1,0-3.075h3.617Z" transform="translate(1025.343 91.687)"/><path class="c" d="M48.991,152.987a1.075,1.075,0,0,1,2.15,0v2.528h2.527a1.075,1.075,0,1,1,0,2.15H51.141v2.529a1.075,1.075,0,0,1-2.15,0v-2.529H46.462a1.075,1.075,0,0,1,0-2.15h2.529Z" transform="translate(840.744 165.151)"/><path class="c" d="M4.659,1.389a1.39,1.39,0,0,1,2.78,0V4.658h3.267a1.39,1.39,0,1,1,0,2.78H7.438v3.269a1.39,1.39,0,0,1-2.78,0V7.437H1.389a1.39,1.39,0,0,1,0-2.78H4.659Z" transform="translate(922.391 218.765) rotate(20)"/><path class="c" d="M175.639,160.345a5,5,0,0,1,3.544,1.47l0,0a5.015,5.015,0,1,1-7.092,7.092l-.005-.005a5.016,5.016,0,0,1,3.55-8.56Zm2.384,2.634a3.371,3.371,0,0,0-4.769,4.766l0,0a3.371,3.371,0,0,0,4.767-4.769Z" transform="translate(701.094 121.351)"/><path class="d" d="M-13876.5,3126.648h182.9" transform="translate(14759.529 -2707.575)"/><path class="d" d="M-13671.576,3126.648h15.8" transform="translate(14744.016 -2707.575)"/><path class="d" d="M-13671.576,3126.648h5.99" transform="translate(14540.171 -2707.575)"/></g></svg>